<?xml version="1.0" encoding="UTF-8" standalone="no"?>
<!-- Created with Inkscape (http://www.inkscape.org/) -->

<svg
   width="640"
   height="640"
   viewBox="0 0 169.33333 169.33333"
   version="1.1"
   id="svg1"
   inkscape:version="1.3.2 (091e20e, 2023-11-25)"
   sodipodi:docname="drawing.svg"
   xmlns:inkscape="http://www.inkscape.org/namespaces/inkscape"
   xmlns:sodipodi="http://sodipodi.sourceforge.net/DTD/sodipodi-0.dtd"
   xmlns="http://www.w3.org/2000/svg"
   xmlns:svg="http://www.w3.org/2000/svg">
  <sodipodi:namedview
     id="namedview1"
     pagecolor="#ffffff"
     bordercolor="#000000"
     borderopacity="0.25"
     inkscape:showpageshadow="2"
     inkscape:pageopacity="0.0"
     inkscape:pagecheckerboard="0"
     inkscape:deskcolor="#d1d1d1"
     inkscape:document-units="mm"
     inkscape:zoom="0.63786053"
     inkscape:cx="217.91598"
     inkscape:cy="361.36426"
     inkscape:window-width="1472"
     inkscape:window-height="840"
     inkscape:window-x="0"
     inkscape:window-y="38"
     inkscape:window-maximized="1"
     inkscape:current-layer="layer1" />
  <defs
     id="defs1" />
  <g
     inkscape:label="Layer 1"
     inkscape:groupmode="layer"
     id="layer1">
    <rect
       style="fill:#20642f;stroke:none;stroke-width:0.787024;fill-opacity:1"
       id="rect1"
       width="169.33333"
       height="169.33333"
       x="2.5431316e-06"
       y="2.5431316e-06"
       rx="4.9986081"
       ry="5.6445036" />
    <g
       inkscape:label="Vintage-Movie-Camera-Icon.svg"
       transform="matrix(0.08425366,0,0,0.08425366,-70.331962,168.99747)"
       id="g4">
      <path
         d="m 841.503,402.413 c 177.963,-0.292 162.23,-7.295 161.934,126.027 54.869,-35.873 109.825,-71.612 164.734,-107.433 15.062,2.596 29.873,6.536 44.242,11.733 0.087,97.108 0.029,194.223 0.035,291.337 -14.404,5.296 -29.302,9.137 -44.393,11.826 -54.915,-35.681 -109.749,-71.502 -164.612,-107.27 0.133,81.507 3.638,86.956 -14.451,100.717 -24.12,18.346 -9.148,13.758 -432.978,13.758 -19.799,0.378 -42.665,-6.387 -54.519,-22.086 -7.827,-10.319 -6.312,-14.797 -6.256,-63.063 -61.806,12.571 -123.676,24.833 -185.476,37.439 0.676,6.027 1.671,14.696 -1.053,18.175 -4.062,-4.574 -4.836,-11.017 -6.408,-16.714 -13.385,2.75 -109.711,33.307 -187.972,38.358 -3.893,0.198 -17.037,0.906 -19.002,-2.345 2.642,-13.392 154.979,-47.905 204.966,-46.68 -0.722,-4.734 -3.051,-20.947 -0.308,-24.891 3.876,-0.654 7.707,20.183 8.392,23.785 62.271,-12.623 124.578,-25.083 186.861,-37.66 -0.013,-49.849 0.962,-124.107 -0.564,-140.045 -33.116,0.801 -66.284,-7.457 -95.177,-23.618 -163.92,-91.677 -91.395,-341.895 103.042,-326.898 46.382,3.577 78.351,23.831 78.351,23.831 4.417,0.21 7.712,-9.99 10.282,-14.305 64.039,-107.497 221.029,-114.843 296.524,-20.217 66.984,83.957 42.84,202.092 -46.194,256.239 z"
         id="path2" />
      <path
         d="m 629.67,752.832 c 78.474,-0.105 156.947,-0.035 235.415,-0.035 -26.032,121.237 -204.195,128.899 -235.415,0.035 z"
         id="path3" />
      <path
         d="m 619.543,852.234 c 85.126,0.006 170.245,0.006 255.365,0.006 0,27.656 -0.064,55.311 0.035,82.972 -14.13,0.023 -28.255,0.035 -42.379,-0.012 1.408,2.221 377.927,727.716 381.467,734.802 0.873,1.63 0.664,3.905 -0.815,5.145 -2.331,2.042 -6.811,7.564 -10.231,3.573 -171.421,-311.979 -405.746,-738.223 -408.489,-743.485 -14.852,-0.012 -29.71,-0.017 -44.562,0.006 18.769,681.234 19.442,641.573 12.885,642.804 -19.056,-288.452 -42.619,-640.306 -42.56,-642.815 -8.957,-0.006 -17.913,-0.012 -26.87,0.006 -135.693,247.019 -271.329,494.068 -407.15,741.012 -1.496,-1.443 -3.044,-2.834 -4.644,-4.15 1.609,-2.708 331.844,-639.22 382.707,-736.868 -14.934,-0.012 -29.861,0.023 -44.789,-0.017 0.094,-27.662 0.036,-55.318 0.03,-82.979 z"
         id="path4" />
    </g>
    <text
       xml:space="preserve"
       style="font-size:177.487px;font-family:Vazirmatn;-inkscape-font-specification:Vazirmatn;fill:#ffffff;fill-opacity:1;stroke:none;stroke-width:2.58835"
       x="66.840912"
       y="129.64864"
       id="text1"><tspan
         sodipodi:role="line"
         id="tspan1"
         style="font-style:normal;font-variant:normal;font-weight:normal;font-stretch:normal;font-family:فارسي;-inkscape-font-specification:فارسي;fill:#ffffff;fill-opacity:1;stroke-width:2.58835"
         x="66.840912"
         y="129.64864">ن</tspan></text>
    <text
       xml:space="preserve"
       style="font-size:200.091px;font-family:Vazirmatn;-inkscape-font-specification:Vazirmatn;fill:#ffffff;fill-opacity:1;stroke:none;stroke-width:2.91798"
       x="6.6607661"
       y="127.83456"
       id="text2"><tspan
         sodipodi:role="line"
         id="tspan2"
         style="font-style:normal;font-variant:normal;font-weight:normal;font-stretch:normal;font-family:SignPainter;-inkscape-font-specification:SignPainter;fill:#ffffff;fill-opacity:1;stroke-width:2.91798"
         x="6.6607661"
         y="127.83456">N</tspan></text>
  </g>
</svg>
